<svg xmlns="http://www.w3.org/2000/svg" width="720" height="100" viewBox="0 0 720 100">
  <defs>
    <style>
      @keyframes glitch-red {
        0%,88%,100% { clip-path: inset(50% 0 50% 0); transform: translateX(0);    opacity: 0; }
        89%          { clip-path: inset(18% 0 68% 0); transform: translateX(-6px); opacity: 1; }
        91%          { clip-path: inset(55% 0 12% 0); transform: translateX(5px);  opacity: 1; }
        93%          { clip-path: inset(72% 0 4%  0); transform: translateX(-4px); opacity: 1; }
        95%          { clip-path: inset(32% 0 48% 0); transform: translateX(6px);  opacity: 1; }
        97%          { clip-path: inset(6%  0 72% 0); transform: translateX(-3px); opacity: 1; }
        99%          { opacity: 0; }
      }
      @keyframes glitch-cyan {
        0%,84%,100% { clip-path: inset(50% 0 50% 0); transform: translateX(0);    opacity: 0; }
        85%          { clip-path: inset(62% 0 22% 0); transform: translateX(6px);  opacity: 1; }
        87%          { clip-path: inset(12% 0 64% 0); transform: translateX(-6px); opacity: 1; }
        89%          { clip-path: inset(40% 0 38% 0); transform: translateX(4px);  opacity: 1; }
        91%          { opacity: 0; }
      }
      @keyframes glitch-base {
        0%,88%,100% { transform: translateX(0);   }
        89%          { transform: translateX(2px); }
        91%          { transform: translateX(-2px);}
        93%          { transform: translateX(1px); }
        95%          { transform: translateX(0);   }
      }
    </style>
  </defs>
  <path fill="#a78bfa" d="M166.2 66.2L159.8 66.2L145.7 49.4L152.1 49.4L166.2 66.1L166.2 66.2ZM128.2 66.2L123.3 66.2L123.3 23.1L159.3 23.1Q161.3 23.1 163.0 24.1Q164.6 25.0 165.6 26.7Q166.5 28.3 166.5 30.3L166.5 30.3L166.5 42.9Q166.5 44.9 165.6 46.5Q164.6 48.1 163.0 49.1Q161.3 50.1 159.3 50.1L159.3 50.1L128.2 50.1L128.2 66.2ZM130.5 45.2L130.5 45.2L159.3 45.2Q160.3 45.2 161.0 44.5Q161.7 43.9 161.7 42.9L161.7 42.9L161.7 30.3Q161.7 29.3 161.0 28.6Q160.3 27.9 159.3 27.9L159.3 27.9L130.5 27.9Q129.6 27.9 128.9 28.6Q128.2 29.3 128.2 30.3L128.2 30.3L128.2 42.9Q128.2 43.9 128.9 44.5Q129.6 45.2 130.5 45.2ZM208.1 66.2L179.9 66.2Q177.9 66.2 176.2 65.2Q174.6 64.2 173.6 62.6Q172.6 60.9 172.6 58.9L172.6 58.9L172.6 46.3L203.1 46.3L203.1 38.7Q203.1 37.7 202.4 37.0Q201.7 36.3 200.7 36.3L200.7 36.3L172.6 36.3L172.6 31.4L200.7 31.4Q202.8 31.4 204.4 32.4Q206.1 33.4 207.1 35.0Q208.1 36.7 208.1 38.7L208.1 38.7L208.1 66.2ZM179.9 61.3L179.9 61.3L203.1 61.3L203.1 51.3L177.5 51.3L177.5 58.9Q177.5 59.9 178.2 60.6Q178.9 61.3 179.9 61.3ZM249.7 66.2L221.5 66.2Q219.5 66.2 217.9 65.2Q216.2 64.2 215.2 62.6Q214.2 60.9 214.2 58.9L214.2 58.9L214.2 46.3L244.7 46.3L244.7 38.7Q244.7 37.7 244.0 37.0Q243.3 36.3 242.4 36.3L242.4 36.3L214.2 36.3L214.2 31.4L242.4 31.4Q244.4 31.4 246.1 32.4Q247.7 33.4 248.7 35.0Q249.7 36.7 249.7 38.7L249.7 38.7L249.7 66.2ZM221.5 61.3L221.5 61.3L244.7 61.3L244.7 51.3L219.2 51.3L219.2 58.9Q219.2 59.9 219.8 60.6Q220.5 61.3 221.5 61.3ZM291.3 66.2L263.1 66.2Q261.1 66.2 259.5 65.2Q257.9 64.2 256.9 62.6Q255.9 60.9 255.9 58.9L255.9 58.9L255.9 46.3L286.4 46.3L286.4 38.7Q286.4 37.7 285.7 37.0Q285.0 36.3 284.0 36.3L284.0 36.3L255.9 36.3L255.9 31.4L284.0 31.4Q286.1 31.4 287.7 32.4Q289.4 33.4 290.3 35.0Q291.3 36.7 291.3 38.7L291.3 38.7L291.3 66.2ZM263.1 61.3L263.1 61.3L286.4 61.3L286.4 51.3L260.8 51.3L260.8 58.9Q260.8 59.9 261.5 60.6Q262.2 61.3 263.1 61.3ZM333.0 66.2L304.8 66.2Q302.8 66.2 301.1 65.2Q299.5 64.2 298.5 62.6Q297.5 60.9 297.5 58.9L297.5 58.9L297.5 46.3L328.0 46.3L328.0 38.7Q328.0 37.7 327.3 37.0Q326.6 36.3 325.6 36.3L325.6 36.3L297.5 36.3L297.5 31.4L325.6 31.4Q327.7 31.4 329.3 32.4Q331.0 33.4 332.0 35.0Q333.0 36.7 333.0 38.7L333.0 38.7L333.0 66.2ZM304.8 61.3L304.8 61.3L328.0 61.3L328.0 51.3L302.4 51.3L302.4 58.9Q302.4 59.9 303.1 60.6Q303.8 61.3 304.8 61.3ZM374.6 66.2L346.4 66.2Q344.4 66.2 342.8 65.2Q341.1 64.2 340.1 62.6Q339.1 60.9 339.1 58.9L339.1 58.9L339.1 46.3L369.6 46.3L369.6 38.7Q369.6 37.7 368.9 37.0Q368.3 36.3 367.3 36.3L367.3 36.3L339.1 36.3L339.1 31.4L367.3 31.4Q369.3 31.4 371.0 32.4Q372.6 33.4 373.6 35.0Q374.6 36.7 374.6 38.7L374.6 38.7L374.6 66.2ZM346.4 61.3L346.4 61.3L369.6 61.3L369.6 51.3L344.1 51.3L344.1 58.9Q344.1 59.9 344.8 60.6Q345.4 61.3 346.4 61.3ZM408.3 80L386.6 80L386.6 80L386.6 75.0L408.3 75.0Q409.3 75.0 410.0 74.3Q410.7 73.6 410.7 72.7L410.7 72.7L410.7 66.2L387.4 66.2Q385.5 66.2 383.8 65.2Q382.2 64.2 381.2 62.6Q380.2 60.9 380.2 58.9L380.2 58.9L380.2 31.5L385.1 31.5L385.1 58.9Q385.1 59.9 385.8 60.6Q386.5 61.3 387.4 61.3L387.4 61.3L408.3 61.3Q409.3 61.3 410.0 60.6Q410.7 59.9 410.7 58.9L410.7 58.9L410.7 31.5L415.6 31.5L415.6 72.7Q415.6 74.7 414.6 76.4Q413.7 78.0 412.0 79.0Q410.4 80 408.3 80L408.3 80ZM427.0 66.2L422.0 66.2L422.0 66.2L422.0 31.4L468.0 31.4Q470.0 31.4 471.7 32.4Q473.3 33.4 474.3 35.0Q475.2 36.7 475.2 38.7L475.2 38.7L475.2 66.2L470.4 66.2L470.4 38.7Q470.4 37.7 469.6 37.0Q468.9 36.3 468.0 36.3L468.0 36.3L453.5 36.3Q452.5 36.3 451.9 37.0Q451.2 37.7 451.2 38.7L451.2 38.7L451.2 66.2L446.2 66.2L446.2 38.7Q446.2 37.7 445.5 37.0Q444.8 36.3 443.8 36.3L443.8 36.3L429.3 36.3Q428.4 36.3 427.7 37.0Q427.0 37.7 427.0 38.7L427.0 38.7L427.0 66.2ZM487.8 66.2L487.8 66.2Q485.8 66.2 484.1 65.2Q482.5 64.2 481.5 62.6Q480.5 60.9 480.5 58.9L480.5 58.9L480.5 38.7Q480.5 36.7 481.5 35.0Q482.5 33.4 484.1 32.4Q485.8 31.4 487.8 31.4L487.8 31.4L508.6 31.4Q510.7 31.4 512.3 32.4Q514.0 33.4 515.0 35.0Q516.0 36.7 516.0 38.7L516.0 38.7L516.0 58.9Q516.0 60.9 515.0 62.6Q514.0 64.2 512.3 65.2Q510.7 66.2 508.6 66.2L508.6 66.2L487.8 66.2ZM487.8 61.3L487.8 61.3L508.6 61.3Q509.6 61.3 510.3 60.6Q511.0 59.9 511.0 58.9L511.0 58.9L511.0 38.7Q511.0 37.7 510.3 37.0Q509.6 36.3 508.6 36.3L508.6 36.3L487.8 36.3Q486.8 36.3 486.1 37.0Q485.4 37.7 485.4 38.7L485.4 38.7L485.4 58.9Q485.4 59.9 486.1 60.6Q486.8 61.3 487.8 61.3ZM526.2 66.2L521.3 66.2L521.3 66.2L521.3 31.4L549.5 31.4Q551.5 31.4 553.1 32.4Q554.8 33.4 555.8 35.0Q556.8 36.7 556.8 38.7L556.8 38.7L556.8 66.2L551.9 66.2L551.9 38.7Q551.9 37.7 551.2 37.0Q550.5 36.3 549.5 36.3L549.5 36.3L528.6 36.3Q527.7 36.3 527.0 37.0Q526.2 37.7 526.2 38.7L526.2 38.7L526.2 66.2ZM568.5 66.2L568.5 66.2Q566.5 66.2 564.8 65.2Q563.2 64.2 562.2 62.6Q561.2 60.9 561.2 58.9L561.2 58.9L561.2 38.7Q561.2 36.7 562.2 35.0Q563.2 33.4 564.8 32.4Q566.5 31.4 568.5 31.4L568.5 31.4L591.8 31.4L591.8 20.0L596.7 20.0L596.7 66.2L568.5 66.2ZM568.5 61.3L568.5 61.3L589.4 61.3Q590.4 61.3 591.1 60.6Q591.8 59.9 591.8 58.9L591.8 58.9L591.8 38.7Q591.8 37.7 591.1 37.0Q590.4 36.3 589.4 36.3L589.4 36.3L568.5 36.3Q567.6 36.3 566.9 37.0Q566.2 37.7 566.2 38.7L566.2 38.7L566.2 58.9Q566.2 59.9 566.9 60.6Q567.6 61.3 568.5 61.3Z" style="animation: glitch-base 7s infinite;"/>
  <path fill="#ff3366" d="M166.2 66.2L159.8 66.2L145.7 49.4L152.1 49.4L166.2 66.1L166.2 66.2ZM128.2 66.2L123.3 66.2L123.3 23.1L159.3 23.1Q161.3 23.1 163.0 24.1Q164.6 25.0 165.6 26.7Q166.5 28.3 166.5 30.3L166.5 30.3L166.5 42.9Q166.5 44.9 165.6 46.5Q164.6 48.1 163.0 49.1Q161.3 50.1 159.3 50.1L159.3 50.1L128.2 50.1L128.2 66.2ZM130.5 45.2L130.5 45.2L159.3 45.2Q160.3 45.2 161.0 44.5Q161.7 43.9 161.7 42.9L161.7 42.9L161.7 30.3Q161.7 29.3 161.0 28.6Q160.3 27.9 159.3 27.9L159.3 27.9L130.5 27.9Q129.6 27.9 128.9 28.6Q128.2 29.3 128.2 30.3L128.2 30.3L128.2 42.9Q128.2 43.9 128.9 44.5Q129.6 45.2 130.5 45.2ZM208.1 66.2L179.9 66.2Q177.9 66.2 176.2 65.2Q174.6 64.2 173.6 62.6Q172.6 60.9 172.6 58.9L172.6 58.9L172.6 46.3L203.1 46.3L203.1 38.7Q203.1 37.7 202.4 37.0Q201.7 36.3 200.7 36.3L200.7 36.3L172.6 36.3L172.6 31.4L200.7 31.4Q202.8 31.4 204.4 32.4Q206.1 33.4 207.1 35.0Q208.1 36.7 208.1 38.7L208.1 38.7L208.1 66.2ZM179.9 61.3L179.9 61.3L203.1 61.3L203.1 51.3L177.5 51.3L177.5 58.9Q177.5 59.9 178.2 60.6Q178.9 61.3 179.9 61.3ZM249.7 66.2L221.5 66.2Q219.5 66.2 217.9 65.2Q216.2 64.2 215.2 62.6Q214.2 60.9 214.2 58.9L214.2 58.9L214.2 46.3L244.7 46.3L244.7 38.7Q244.7 37.7 244.0 37.0Q243.3 36.3 242.4 36.3L242.4 36.3L214.2 36.3L214.2 31.4L242.4 31.4Q244.4 31.4 246.1 32.4Q247.7 33.4 248.7 35.0Q249.7 36.7 249.7 38.7L249.7 38.7L249.7 66.2ZM221.5 61.3L221.5 61.3L244.7 61.3L244.7 51.3L219.2 51.3L219.2 58.9Q219.2 59.9 219.8 60.6Q220.5 61.3 221.5 61.3ZM291.3 66.2L263.1 66.2Q261.1 66.2 259.5 65.2Q257.9 64.2 256.9 62.6Q255.9 60.9 255.9 58.9L255.9 58.9L255.9 46.3L286.4 46.3L286.4 38.7Q286.4 37.7 285.7 37.0Q285.0 36.3 284.0 36.3L284.0 36.3L255.9 36.3L255.9 31.4L284.0 31.4Q286.1 31.4 287.7 32.4Q289.4 33.4 290.3 35.0Q291.3 36.7 291.3 38.7L291.3 38.7L291.3 66.2ZM263.1 61.3L263.1 61.3L286.4 61.3L286.4 51.3L260.8 51.3L260.8 58.9Q260.8 59.9 261.5 60.6Q262.2 61.3 263.1 61.3ZM333.0 66.2L304.8 66.2Q302.8 66.2 301.1 65.2Q299.5 64.2 298.5 62.6Q297.5 60.9 297.5 58.9L297.5 58.9L297.5 46.3L328.0 46.3L328.0 38.7Q328.0 37.7 327.3 37.0Q326.6 36.3 325.6 36.3L325.6 36.3L297.5 36.3L297.5 31.4L325.6 31.4Q327.7 31.4 329.3 32.4Q331.0 33.4 332.0 35.0Q333.0 36.7 333.0 38.7L333.0 38.7L333.0 66.2ZM304.8 61.3L304.8 61.3L328.0 61.3L328.0 51.3L302.4 51.3L302.4 58.9Q302.4 59.9 303.1 60.6Q303.8 61.3 304.8 61.3ZM374.6 66.2L346.4 66.2Q344.4 66.2 342.8 65.2Q341.1 64.2 340.1 62.6Q339.1 60.9 339.1 58.9L339.1 58.9L339.1 46.3L369.6 46.3L369.6 38.7Q369.6 37.7 368.9 37.0Q368.3 36.3 367.3 36.3L367.3 36.3L339.1 36.3L339.1 31.4L367.3 31.4Q369.3 31.4 371.0 32.4Q372.6 33.4 373.6 35.0Q374.6 36.7 374.6 38.7L374.6 38.7L374.6 66.2ZM346.4 61.3L346.4 61.3L369.6 61.3L369.6 51.3L344.1 51.3L344.1 58.9Q344.1 59.9 344.8 60.6Q345.4 61.3 346.4 61.3ZM408.3 80L386.6 80L386.6 80L386.6 75.0L408.3 75.0Q409.3 75.0 410.0 74.3Q410.7 73.6 410.7 72.7L410.7 72.7L410.7 66.2L387.4 66.2Q385.5 66.2 383.8 65.2Q382.2 64.2 381.2 62.6Q380.2 60.9 380.2 58.9L380.2 58.9L380.2 31.5L385.1 31.5L385.1 58.9Q385.1 59.9 385.8 60.6Q386.5 61.3 387.4 61.3L387.4 61.3L408.3 61.3Q409.3 61.3 410.0 60.6Q410.7 59.9 410.7 58.9L410.7 58.9L410.7 31.5L415.6 31.5L415.6 72.7Q415.6 74.7 414.6 76.4Q413.7 78.0 412.0 79.0Q410.4 80 408.3 80L408.3 80ZM427.0 66.2L422.0 66.2L422.0 66.2L422.0 31.4L468.0 31.4Q470.0 31.4 471.7 32.4Q473.3 33.4 474.3 35.0Q475.2 36.7 475.2 38.7L475.2 38.7L475.2 66.2L470.4 66.2L470.4 38.7Q470.4 37.7 469.6 37.0Q468.9 36.3 468.0 36.3L468.0 36.3L453.5 36.3Q452.5 36.3 451.9 37.0Q451.2 37.7 451.2 38.7L451.2 38.7L451.2 66.2L446.2 66.2L446.2 38.7Q446.2 37.7 445.5 37.0Q444.8 36.3 443.8 36.3L443.8 36.3L429.3 36.3Q428.4 36.3 427.7 37.0Q427.0 37.7 427.0 38.7L427.0 38.7L427.0 66.2ZM487.8 66.2L487.8 66.2Q485.8 66.2 484.1 65.2Q482.5 64.2 481.5 62.6Q480.5 60.9 480.5 58.9L480.5 58.9L480.5 38.7Q480.5 36.7 481.5 35.0Q482.5 33.4 484.1 32.4Q485.8 31.4 487.8 31.4L487.8 31.4L508.6 31.4Q510.7 31.4 512.3 32.4Q514.0 33.4 515.0 35.0Q516.0 36.7 516.0 38.7L516.0 38.7L516.0 58.9Q516.0 60.9 515.0 62.6Q514.0 64.2 512.3 65.2Q510.7 66.2 508.6 66.2L508.6 66.2L487.8 66.2ZM487.8 61.3L487.8 61.3L508.6 61.3Q509.6 61.3 510.3 60.6Q511.0 59.9 511.0 58.9L511.0 58.9L511.0 38.7Q511.0 37.7 510.3 37.0Q509.6 36.3 508.6 36.3L508.6 36.3L487.8 36.3Q486.8 36.3 486.1 37.0Q485.4 37.7 485.4 38.7L485.4 38.7L485.4 58.9Q485.4 59.9 486.1 60.6Q486.8 61.3 487.8 61.3ZM526.2 66.2L521.3 66.2L521.3 66.2L521.3 31.4L549.5 31.4Q551.5 31.4 553.1 32.4Q554.8 33.4 555.8 35.0Q556.8 36.7 556.8 38.7L556.8 38.7L556.8 66.2L551.9 66.2L551.9 38.7Q551.9 37.7 551.2 37.0Q550.5 36.3 549.5 36.3L549.5 36.3L528.6 36.3Q527.7 36.3 527.0 37.0Q526.2 37.7 526.2 38.7L526.2 38.7L526.2 66.2ZM568.5 66.2L568.5 66.2Q566.5 66.2 564.8 65.2Q563.2 64.2 562.2 62.6Q561.2 60.9 561.2 58.9L561.2 58.9L561.2 38.7Q561.2 36.7 562.2 35.0Q563.2 33.4 564.8 32.4Q566.5 31.4 568.5 31.4L568.5 31.4L591.8 31.4L591.8 20.0L596.7 20.0L596.7 66.2L568.5 66.2ZM568.5 61.3L568.5 61.3L589.4 61.3Q590.4 61.3 591.1 60.6Q591.8 59.9 591.8 58.9L591.8 58.9L591.8 38.7Q591.8 37.7 591.1 37.0Q590.4 36.3 589.4 36.3L589.4 36.3L568.5 36.3Q567.6 36.3 566.9 37.0Q566.2 37.7 566.2 38.7L566.2 38.7L566.2 58.9Q566.2 59.9 566.9 60.6Q567.6 61.3 568.5 61.3Z" style="animation: glitch-red 7s infinite;"/>
  <path fill="#00e5ff" d="M166.2 66.2L159.8 66.2L145.7 49.4L152.1 49.4L166.2 66.1L166.2 66.2ZM128.2 66.2L123.3 66.2L123.3 23.1L159.3 23.1Q161.3 23.1 163.0 24.1Q164.6 25.0 165.6 26.7Q166.5 28.3 166.5 30.3L166.5 30.3L166.5 42.9Q166.5 44.9 165.6 46.5Q164.6 48.1 163.0 49.1Q161.3 50.1 159.3 50.1L159.3 50.1L128.2 50.1L128.2 66.2ZM130.5 45.2L130.5 45.2L159.3 45.2Q160.3 45.2 161.0 44.5Q161.7 43.9 161.7 42.9L161.7 42.9L161.7 30.3Q161.7 29.3 161.0 28.6Q160.3 27.9 159.3 27.9L159.3 27.9L130.5 27.9Q129.6 27.9 128.9 28.6Q128.2 29.3 128.2 30.3L128.2 30.3L128.2 42.9Q128.2 43.9 128.9 44.5Q129.6 45.2 130.5 45.2ZM208.1 66.2L179.9 66.2Q177.9 66.2 176.2 65.2Q174.6 64.2 173.6 62.6Q172.6 60.9 172.6 58.9L172.6 58.9L172.6 46.3L203.1 46.3L203.1 38.7Q203.1 37.7 202.4 37.0Q201.7 36.3 200.7 36.3L200.7 36.3L172.6 36.3L172.6 31.4L200.7 31.4Q202.8 31.4 204.4 32.4Q206.1 33.4 207.1 35.0Q208.1 36.7 208.1 38.7L208.1 38.7L208.1 66.2ZM179.9 61.3L179.9 61.3L203.1 61.3L203.1 51.3L177.5 51.3L177.5 58.9Q177.5 59.9 178.2 60.6Q178.9 61.3 179.9 61.3ZM249.7 66.2L221.5 66.2Q219.5 66.2 217.9 65.2Q216.2 64.2 215.2 62.6Q214.2 60.9 214.2 58.9L214.2 58.9L214.2 46.3L244.7 46.3L244.7 38.7Q244.7 37.7 244.0 37.0Q243.3 36.3 242.4 36.3L242.4 36.3L214.2 36.3L214.2 31.4L242.4 31.4Q244.4 31.4 246.1 32.4Q247.7 33.4 248.7 35.0Q249.7 36.7 249.7 38.7L249.7 38.7L249.7 66.2ZM221.5 61.3L221.5 61.3L244.7 61.3L244.7 51.3L219.2 51.3L219.2 58.9Q219.2 59.9 219.8 60.6Q220.5 61.3 221.5 61.3ZM291.3 66.2L263.1 66.2Q261.1 66.2 259.5 65.2Q257.9 64.2 256.9 62.6Q255.9 60.9 255.9 58.9L255.9 58.9L255.9 46.3L286.4 46.3L286.4 38.7Q286.4 37.7 285.7 37.0Q285.0 36.3 284.0 36.3L284.0 36.3L255.9 36.3L255.9 31.4L284.0 31.4Q286.1 31.4 287.7 32.4Q289.4 33.4 290.3 35.0Q291.3 36.7 291.3 38.7L291.3 38.7L291.3 66.2ZM263.1 61.3L263.1 61.3L286.4 61.3L286.4 51.3L260.8 51.3L260.8 58.9Q260.8 59.9 261.5 60.6Q262.2 61.3 263.1 61.3ZM333.0 66.2L304.8 66.2Q302.8 66.2 301.1 65.2Q299.5 64.2 298.5 62.6Q297.5 60.9 297.5 58.9L297.5 58.9L297.5 46.3L328.0 46.3L328.0 38.7Q328.0 37.7 327.3 37.0Q326.6 36.3 325.6 36.3L325.6 36.3L297.5 36.3L297.5 31.4L325.6 31.4Q327.7 31.4 329.3 32.4Q331.0 33.4 332.0 35.0Q333.0 36.7 333.0 38.7L333.0 38.7L333.0 66.2ZM304.8 61.3L304.8 61.3L328.0 61.3L328.0 51.3L302.4 51.3L302.4 58.9Q302.4 59.9 303.1 60.6Q303.8 61.3 304.8 61.3ZM374.6 66.2L346.4 66.2Q344.4 66.2 342.8 65.2Q341.1 64.2 340.1 62.6Q339.1 60.9 339.1 58.9L339.1 58.9L339.1 46.3L369.6 46.3L369.6 38.7Q369.6 37.7 368.9 37.0Q368.3 36.3 367.3 36.3L367.3 36.3L339.1 36.3L339.1 31.4L367.3 31.4Q369.3 31.4 371.0 32.4Q372.6 33.4 373.6 35.0Q374.6 36.7 374.6 38.7L374.6 38.7L374.6 66.2ZM346.4 61.3L346.4 61.3L369.6 61.3L369.6 51.3L344.1 51.3L344.1 58.9Q344.1 59.9 344.8 60.6Q345.4 61.3 346.4 61.3ZM408.3 80L386.6 80L386.6 80L386.6 75.0L408.3 75.0Q409.3 75.0 410.0 74.3Q410.7 73.6 410.7 72.7L410.7 72.7L410.7 66.2L387.4 66.2Q385.5 66.2 383.8 65.2Q382.2 64.2 381.2 62.6Q380.2 60.9 380.2 58.9L380.2 58.9L380.2 31.5L385.1 31.5L385.1 58.9Q385.1 59.9 385.8 60.6Q386.5 61.3 387.4 61.3L387.4 61.3L408.3 61.3Q409.3 61.3 410.0 60.6Q410.7 59.9 410.7 58.9L410.7 58.9L410.7 31.5L415.6 31.5L415.6 72.7Q415.6 74.7 414.6 76.4Q413.7 78.0 412.0 79.0Q410.4 80 408.3 80L408.3 80ZM427.0 66.2L422.0 66.2L422.0 66.2L422.0 31.4L468.0 31.4Q470.0 31.4 471.7 32.4Q473.3 33.4 474.3 35.0Q475.2 36.7 475.2 38.7L475.2 38.7L475.2 66.2L470.4 66.2L470.4 38.7Q470.4 37.7 469.6 37.0Q468.9 36.3 468.0 36.3L468.0 36.3L453.5 36.3Q452.5 36.3 451.9 37.0Q451.2 37.7 451.2 38.7L451.2 38.7L451.2 66.2L446.2 66.2L446.2 38.7Q446.2 37.7 445.5 37.0Q444.8 36.3 443.8 36.3L443.8 36.3L429.3 36.3Q428.4 36.3 427.7 37.0Q427.0 37.7 427.0 38.7L427.0 38.7L427.0 66.2ZM487.8 66.2L487.8 66.2Q485.8 66.2 484.1 65.2Q482.5 64.2 481.5 62.6Q480.5 60.9 480.5 58.9L480.5 58.9L480.5 38.7Q480.5 36.7 481.5 35.0Q482.5 33.4 484.1 32.4Q485.8 31.4 487.8 31.4L487.8 31.4L508.6 31.4Q510.7 31.4 512.3 32.4Q514.0 33.4 515.0 35.0Q516.0 36.7 516.0 38.7L516.0 38.7L516.0 58.9Q516.0 60.9 515.0 62.6Q514.0 64.2 512.3 65.2Q510.7 66.2 508.6 66.2L508.6 66.2L487.8 66.2ZM487.8 61.3L487.8 61.3L508.6 61.3Q509.6 61.3 510.3 60.6Q511.0 59.9 511.0 58.9L511.0 58.9L511.0 38.7Q511.0 37.7 510.3 37.0Q509.6 36.3 508.6 36.3L508.6 36.3L487.8 36.3Q486.8 36.3 486.1 37.0Q485.4 37.7 485.4 38.7L485.4 38.7L485.4 58.9Q485.4 59.9 486.1 60.6Q486.8 61.3 487.8 61.3ZM526.2 66.2L521.3 66.2L521.3 66.2L521.3 31.4L549.5 31.4Q551.5 31.4 553.1 32.4Q554.8 33.4 555.8 35.0Q556.8 36.7 556.8 38.7L556.8 38.7L556.8 66.2L551.9 66.2L551.9 38.7Q551.9 37.7 551.2 37.0Q550.5 36.3 549.5 36.3L549.5 36.3L528.6 36.3Q527.7 36.3 527.0 37.0Q526.2 37.7 526.2 38.7L526.2 38.7L526.2 66.2ZM568.5 66.2L568.5 66.2Q566.5 66.2 564.8 65.2Q563.2 64.2 562.2 62.6Q561.2 60.9 561.2 58.9L561.2 58.9L561.2 38.7Q561.2 36.7 562.2 35.0Q563.2 33.4 564.8 32.4Q566.5 31.4 568.5 31.4L568.5 31.4L591.8 31.4L591.8 20.0L596.7 20.0L596.7 66.2L568.5 66.2ZM568.5 61.3L568.5 61.3L589.4 61.3Q590.4 61.3 591.1 60.6Q591.8 59.9 591.8 58.9L591.8 58.9L591.8 38.7Q591.8 37.7 591.1 37.0Q590.4 36.3 589.4 36.3L589.4 36.3L568.5 36.3Q567.6 36.3 566.9 37.0Q566.2 37.7 566.2 38.7L566.2 38.7L566.2 58.9Q566.2 59.9 566.9 60.6Q567.6 61.3 568.5 61.3Z" style="animation: glitch-cyan 7s infinite;"/>
</svg>