<svg xmlns="http://www.w3.org/2000/svg" width="720" height="90" viewBox="0 0 720 90">
  <defs>
    <style>
      @keyframes glitch-red {
        0%,88%,100% { clip-path: inset(50% 0 50% 0); transform: translateX(0);    opacity: 0; }
        89%          { clip-path: inset(18% 0 68% 0); transform: translateX(-6px); opacity: 1; }
        91%          { clip-path: inset(55% 0 12% 0); transform: translateX(5px);  opacity: 1; }
        93%          { clip-path: inset(72% 0 4%  0); transform: translateX(-4px); opacity: 1; }
        95%          { clip-path: inset(32% 0 48% 0); transform: translateX(6px);  opacity: 1; }
        97%          { clip-path: inset(6%  0 72% 0); transform: translateX(-3px); opacity: 1; }
        99%          { opacity: 0; }
      }
      @keyframes glitch-cyan {
        0%,84%,100% { clip-path: inset(50% 0 50% 0); transform: translateX(0);    opacity: 0; }
        85%          { clip-path: inset(62% 0 22% 0); transform: translateX(6px);  opacity: 1; }
        87%          { clip-path: inset(12% 0 64% 0); transform: translateX(-6px); opacity: 1; }
        89%          { clip-path: inset(40% 0 38% 0); transform: translateX(4px);  opacity: 1; }
        91%          { opacity: 0; }
      }
      @keyframes glitch-base {
        0%,88%,100% { transform: translateX(0);   }
        89%          { transform: translateX(2px); }
        91%          { transform: translateX(-2px);}
        93%          { transform: translateX(1px); }
        95%          { transform: translateX(0);   }
      }
    </style>
  </defs>
  <path fill="#a78bfa" d="M205.0 94.0L199.8 94.0L188.6 80.5L193.7 80.5L205.0 93.9L205.0 94.0ZM174.6 94.0L170.7 94.0L170.7 59.4L199.5 59.4Q201.0 59.4 202.4 60.2Q203.7 61.0 204.5 62.3Q205.2 63.6 205.2 65.2L205.2 65.2L205.2 75.3Q205.2 76.9 204.5 78.2Q203.7 79.5 202.4 80.3Q201.0 81.1 199.5 81.1L199.5 81.1L174.6 81.1L174.6 94.0ZM176.4 77.2L176.4 77.2L199.5 77.2Q200.2 77.2 200.8 76.6Q201.3 76.1 201.3 75.3L201.3 75.3L201.3 65.2Q201.3 64.4 200.8 63.9Q200.2 63.3 199.5 63.3L199.5 63.3L176.4 63.3Q175.7 63.3 175.1 63.9Q174.6 64.4 174.6 65.2L174.6 65.2L174.6 75.3Q174.6 76.1 175.1 76.6Q175.7 77.2 176.4 77.2ZM238.4 94.0L215.9 94.0Q214.3 94.0 213.0 93.2Q211.7 92.4 210.9 91.1Q210.1 89.7 210.1 88.2L210.1 88.2L210.1 78.1L234.5 78.1L234.5 71.9Q234.5 71.2 233.9 70.6Q233.4 70.1 232.6 70.1L232.6 70.1L210.1 70.1L210.1 66.1L232.6 66.1Q234.2 66.1 235.5 66.9Q236.9 67.7 237.6 69.0Q238.4 70.3 238.4 71.9L238.4 71.9L238.4 94.0ZM215.9 90.0L215.9 90.0L234.5 90.0L234.5 82.0L214.0 82.0L214.0 88.2Q214.0 88.9 214.6 89.5Q215.1 90.0 215.9 90.0ZM271.8 94.0L249.2 94.0Q247.6 94.0 246.3 93.2Q245.0 92.4 244.2 91.1Q243.4 89.7 243.4 88.2L243.4 88.2L243.4 78.1L267.8 78.1L267.8 71.9Q267.8 71.2 267.2 70.6Q266.7 70.1 265.9 70.1L265.9 70.1L243.4 70.1L243.4 66.1L265.9 66.1Q267.5 66.1 268.8 66.9Q270.2 67.7 271.0 69.0Q271.8 70.3 271.8 71.9L271.8 71.9L271.8 94.0ZM249.2 90.0L249.2 90.0L267.8 90.0L267.8 82.0L247.3 82.0L247.3 88.2Q247.3 88.9 247.9 89.5Q248.4 90.0 249.2 90.0ZM305.1 94.0L282.5 94.0Q280.9 94.0 279.6 93.2Q278.3 92.4 277.5 91.1Q276.7 89.7 276.7 88.2L276.7 88.2L276.7 78.1L301.1 78.1L301.1 71.9Q301.1 71.2 300.5 70.6Q300.0 70.1 299.2 70.1L299.2 70.1L276.7 70.1L276.7 66.1L299.2 66.1Q300.8 66.1 302.2 66.9Q303.5 67.7 304.3 69.0Q305.1 70.3 305.1 71.9L305.1 71.9L305.1 94.0ZM282.5 90.0L282.5 90.0L301.1 90.0L301.1 82.0L280.6 82.0L280.6 88.2Q280.6 88.9 281.2 89.5Q281.7 90.0 282.5 90.0ZM338.4 94.0L315.8 94.0Q314.2 94.0 312.9 93.2Q311.6 92.4 310.8 91.1Q310.0 89.7 310.0 88.2L310.0 88.2L310.0 78.1L334.4 78.1L334.4 71.9Q334.4 71.2 333.8 70.6Q333.3 70.1 332.5 70.1L332.5 70.1L310.0 70.1L310.0 66.1L332.5 66.1Q334.2 66.1 335.5 66.9Q336.8 67.7 337.6 69.0Q338.4 70.3 338.4 71.9L338.4 71.9L338.4 94.0ZM315.8 90.0L315.8 90.0L334.4 90.0L334.4 82.0L313.9 82.0L313.9 88.2Q313.9 88.9 314.5 89.5Q315.0 90.0 315.8 90.0ZM371.7 94.0L349.1 94.0Q347.5 94.0 346.2 93.2Q344.9 92.4 344.1 91.1Q343.3 89.7 343.3 88.2L343.3 88.2L343.3 78.1L367.7 78.1L367.7 71.9Q367.7 71.2 367.2 70.6Q366.6 70.1 365.8 70.1L365.8 70.1L343.3 70.1L343.3 66.1L365.8 66.1Q367.5 66.1 368.8 66.9Q370.1 67.7 370.9 69.0Q371.7 70.3 371.7 71.9L371.7 71.9L371.7 94.0ZM349.1 90.0L349.1 90.0L367.7 90.0L367.7 82.0L347.3 82.0L347.3 88.2Q347.3 88.9 347.8 89.5Q348.4 90.0 349.1 90.0ZM398.7 105.0L381.3 105.0L381.3 105.0L381.3 101.0L398.7 101.0Q399.4 101.0 400.0 100.5Q400.5 99.9 400.5 99.1L400.5 99.1L400.5 94.0L382.0 94.0Q380.4 94.0 379.1 93.2Q377.7 92.4 376.9 91.1Q376.2 89.7 376.2 88.2L376.2 88.2L376.2 66.2L380.1 66.2L380.1 88.2Q380.1 88.9 380.6 89.5Q381.2 90.0 382.0 90.0L382.0 90.0L398.7 90.0Q399.4 90.0 400.0 89.5Q400.5 88.9 400.5 88.2L400.5 88.2L400.5 66.2L404.5 66.2L404.5 99.1Q404.5 100.8 403.7 102.1Q402.9 103.4 401.6 104.2Q400.3 105.0 398.7 105.0L398.7 105.0ZM413.6 94.0L409.6 94.0L409.6 94.0L409.6 66.1L446.4 66.1Q448.0 66.1 449.3 66.9Q450.6 67.7 451.4 69.0Q452.2 70.3 452.2 71.9L452.2 71.9L452.2 94.0L448.3 94.0L448.3 71.9Q448.3 71.2 447.7 70.6Q447.1 70.1 446.4 70.1L446.4 70.1L434.8 70.1Q434.0 70.1 433.5 70.6Q432.9 71.2 432.9 71.9L432.9 71.9L432.9 94.0L429.0 94.0L429.0 71.9Q429.0 71.2 428.4 70.6Q427.8 70.1 427.1 70.1L427.1 70.1L415.5 70.1Q414.7 70.1 414.1 70.6Q413.6 71.2 413.6 71.9L413.6 71.9L413.6 94.0ZM462.2 94.0L462.2 94.0Q460.6 94.0 459.3 93.2Q458.0 92.4 457.2 91.1Q456.4 89.7 456.4 88.2L456.4 88.2L456.4 71.9Q456.4 70.3 457.2 69.0Q458.0 67.7 459.3 66.9Q460.6 66.1 462.2 66.1L462.2 66.1L478.9 66.1Q480.6 66.1 481.9 66.9Q483.2 67.7 484.0 69.0Q484.8 70.3 484.8 71.9L484.8 71.9L484.8 88.2Q484.8 89.7 484.0 91.1Q483.2 92.4 481.9 93.2Q480.6 94.0 478.9 94.0L478.9 94.0L462.2 94.0ZM462.2 90.0L462.2 90.0L478.9 90.0Q479.7 90.0 480.2 89.5Q480.8 88.9 480.8 88.2L480.8 88.2L480.8 71.9Q480.8 71.2 480.2 70.6Q479.7 70.1 478.9 70.1L478.9 70.1L462.2 70.1Q461.4 70.1 460.9 70.6Q460.3 71.2 460.3 71.9L460.3 71.9L460.3 88.2Q460.3 88.9 460.9 89.5Q461.4 90.0 462.2 90.0ZM493.0 94.0L489.0 94.0L489.0 94.0L489.0 66.1L511.6 66.1Q513.2 66.1 514.5 66.9Q515.8 67.7 516.6 69.0Q517.4 70.3 517.4 71.9L517.4 71.9L517.4 94.0L513.5 94.0L513.5 71.9Q513.5 71.2 512.9 70.6Q512.4 70.1 511.6 70.1L511.6 70.1L494.9 70.1Q494.1 70.1 493.6 70.6Q493.0 71.2 493.0 71.9L493.0 71.9L493.0 94.0ZM526.8 94.0L526.8 94.0Q525.2 94.0 523.9 93.2Q522.6 92.4 521.8 91.1Q521.0 89.7 521.0 88.2L521.0 88.2L521.0 71.9Q521.0 70.3 521.8 69.0Q522.6 67.7 523.9 66.9Q525.2 66.1 526.8 66.1L526.8 66.1L545.4 66.1L545.4 57.0L549.3 57.0L549.3 94.0L526.8 94.0ZM526.8 90.0L526.8 90.0L543.5 90.0Q544.3 90.0 544.8 89.5Q545.4 88.9 545.4 88.2L545.4 88.2L545.4 71.9Q545.4 71.2 544.8 70.6Q544.3 70.1 543.5 70.1L543.5 70.1L526.8 70.1Q526.1 70.1 525.5 70.6Q525.0 71.2 525.0 71.9L525.0 71.9L525.0 88.2Q525.0 88.9 525.5 89.5Q526.1 90.0 526.8 90.0Z" style="animation: glitch-base 7s infinite;"/>
  <path fill="#ff3366" d="M205.0 94.0L199.8 94.0L188.6 80.5L193.7 80.5L205.0 93.9L205.0 94.0ZM174.6 94.0L170.7 94.0L170.7 59.4L199.5 59.4Q201.0 59.4 202.4 60.2Q203.7 61.0 204.5 62.3Q205.2 63.6 205.2 65.2L205.2 65.2L205.2 75.3Q205.2 76.9 204.5 78.2Q203.7 79.5 202.4 80.3Q201.0 81.1 199.5 81.1L199.5 81.1L174.6 81.1L174.6 94.0ZM176.4 77.2L176.4 77.2L199.5 77.2Q200.2 77.2 200.8 76.6Q201.3 76.1 201.3 75.3L201.3 75.3L201.3 65.2Q201.3 64.4 200.8 63.9Q200.2 63.3 199.5 63.3L199.5 63.3L176.4 63.3Q175.7 63.3 175.1 63.9Q174.6 64.4 174.6 65.2L174.6 65.2L174.6 75.3Q174.6 76.1 175.1 76.6Q175.7 77.2 176.4 77.2ZM238.4 94.0L215.9 94.0Q214.3 94.0 213.0 93.2Q211.7 92.4 210.9 91.1Q210.1 89.7 210.1 88.2L210.1 88.2L210.1 78.1L234.5 78.1L234.5 71.9Q234.5 71.2 233.9 70.6Q233.4 70.1 232.6 70.1L232.6 70.1L210.1 70.1L210.1 66.1L232.6 66.1Q234.2 66.1 235.5 66.9Q236.9 67.7 237.6 69.0Q238.4 70.3 238.4 71.9L238.4 71.9L238.4 94.0ZM215.9 90.0L215.9 90.0L234.5 90.0L234.5 82.0L214.0 82.0L214.0 88.2Q214.0 88.9 214.6 89.5Q215.1 90.0 215.9 90.0ZM271.8 94.0L249.2 94.0Q247.6 94.0 246.3 93.2Q245.0 92.4 244.2 91.1Q243.4 89.7 243.4 88.2L243.4 88.2L243.4 78.1L267.8 78.1L267.8 71.9Q267.8 71.2 267.2 70.6Q266.7 70.1 265.9 70.1L265.9 70.1L243.4 70.1L243.4 66.1L265.9 66.1Q267.5 66.1 268.8 66.9Q270.2 67.7 271.0 69.0Q271.8 70.3 271.8 71.9L271.8 71.9L271.8 94.0ZM249.2 90.0L249.2 90.0L267.8 90.0L267.8 82.0L247.3 82.0L247.3 88.2Q247.3 88.9 247.9 89.5Q248.4 90.0 249.2 90.0ZM305.1 94.0L282.5 94.0Q280.9 94.0 279.6 93.2Q278.3 92.4 277.5 91.1Q276.7 89.7 276.7 88.2L276.7 88.2L276.7 78.1L301.1 78.1L301.1 71.9Q301.1 71.2 300.5 70.6Q300.0 70.1 299.2 70.1L299.2 70.1L276.7 70.1L276.7 66.1L299.2 66.1Q300.8 66.1 302.2 66.9Q303.5 67.7 304.3 69.0Q305.1 70.3 305.1 71.9L305.1 71.9L305.1 94.0ZM282.5 90.0L282.5 90.0L301.1 90.0L301.1 82.0L280.6 82.0L280.6 88.2Q280.6 88.9 281.2 89.5Q281.7 90.0 282.5 90.0ZM338.4 94.0L315.8 94.0Q314.2 94.0 312.9 93.2Q311.6 92.4 310.8 91.1Q310.0 89.7 310.0 88.2L310.0 88.2L310.0 78.1L334.4 78.1L334.4 71.9Q334.4 71.2 333.8 70.6Q333.3 70.1 332.5 70.1L332.5 70.1L310.0 70.1L310.0 66.1L332.5 66.1Q334.2 66.1 335.5 66.9Q336.8 67.7 337.6 69.0Q338.4 70.3 338.4 71.9L338.4 71.9L338.4 94.0ZM315.8 90.0L315.8 90.0L334.4 90.0L334.4 82.0L313.9 82.0L313.9 88.2Q313.9 88.9 314.5 89.5Q315.0 90.0 315.8 90.0ZM371.7 94.0L349.1 94.0Q347.5 94.0 346.2 93.2Q344.9 92.4 344.1 91.1Q343.3 89.7 343.3 88.2L343.3 88.2L343.3 78.1L367.7 78.1L367.7 71.9Q367.7 71.2 367.2 70.6Q366.6 70.1 365.8 70.1L365.8 70.1L343.3 70.1L343.3 66.1L365.8 66.1Q367.5 66.1 368.8 66.9Q370.1 67.7 370.9 69.0Q371.7 70.3 371.7 71.9L371.7 71.9L371.7 94.0ZM349.1 90.0L349.1 90.0L367.7 90.0L367.7 82.0L347.3 82.0L347.3 88.2Q347.3 88.9 347.8 89.5Q348.4 90.0 349.1 90.0ZM398.7 105.0L381.3 105.0L381.3 105.0L381.3 101.0L398.7 101.0Q399.4 101.0 400.0 100.5Q400.5 99.9 400.5 99.1L400.5 99.1L400.5 94.0L382.0 94.0Q380.4 94.0 379.1 93.2Q377.7 92.4 376.9 91.1Q376.2 89.7 376.2 88.2L376.2 88.2L376.2 66.2L380.1 66.2L380.1 88.2Q380.1 88.9 380.6 89.5Q381.2 90.0 382.0 90.0L382.0 90.0L398.7 90.0Q399.4 90.0 400.0 89.5Q400.5 88.9 400.5 88.2L400.5 88.2L400.5 66.2L404.5 66.2L404.5 99.1Q404.5 100.8 403.7 102.1Q402.9 103.4 401.6 104.2Q400.3 105.0 398.7 105.0L398.7 105.0ZM413.6 94.0L409.6 94.0L409.6 94.0L409.6 66.1L446.4 66.1Q448.0 66.1 449.3 66.9Q450.6 67.7 451.4 69.0Q452.2 70.3 452.2 71.9L452.2 71.9L452.2 94.0L448.3 94.0L448.3 71.9Q448.3 71.2 447.7 70.6Q447.1 70.1 446.4 70.1L446.4 70.1L434.8 70.1Q434.0 70.1 433.5 70.6Q432.9 71.2 432.9 71.9L432.9 71.9L432.9 94.0L429.0 94.0L429.0 71.9Q429.0 71.2 428.4 70.6Q427.8 70.1 427.1 70.1L427.1 70.1L415.5 70.1Q414.7 70.1 414.1 70.6Q413.6 71.2 413.6 71.9L413.6 71.9L413.6 94.0ZM462.2 94.0L462.2 94.0Q460.6 94.0 459.3 93.2Q458.0 92.4 457.2 91.1Q456.4 89.7 456.4 88.2L456.4 88.2L456.4 71.9Q456.4 70.3 457.2 69.0Q458.0 67.7 459.3 66.9Q460.6 66.1 462.2 66.1L462.2 66.1L478.9 66.1Q480.6 66.1 481.9 66.9Q483.2 67.7 484.0 69.0Q484.8 70.3 484.8 71.9L484.8 71.9L484.8 88.2Q484.8 89.7 484.0 91.1Q483.2 92.4 481.9 93.2Q480.6 94.0 478.9 94.0L478.9 94.0L462.2 94.0ZM462.2 90.0L462.2 90.0L478.9 90.0Q479.7 90.0 480.2 89.5Q480.8 88.9 480.8 88.2L480.8 88.2L480.8 71.9Q480.8 71.2 480.2 70.6Q479.7 70.1 478.9 70.1L478.9 70.1L462.2 70.1Q461.4 70.1 460.9 70.6Q460.3 71.2 460.3 71.9L460.3 71.9L460.3 88.2Q460.3 88.9 460.9 89.5Q461.4 90.0 462.2 90.0ZM493.0 94.0L489.0 94.0L489.0 94.0L489.0 66.1L511.6 66.1Q513.2 66.1 514.5 66.9Q515.8 67.7 516.6 69.0Q517.4 70.3 517.4 71.9L517.4 71.9L517.4 94.0L513.5 94.0L513.5 71.9Q513.5 71.2 512.9 70.6Q512.4 70.1 511.6 70.1L511.6 70.1L494.9 70.1Q494.1 70.1 493.6 70.6Q493.0 71.2 493.0 71.9L493.0 71.9L493.0 94.0ZM526.8 94.0L526.8 94.0Q525.2 94.0 523.9 93.2Q522.6 92.4 521.8 91.1Q521.0 89.7 521.0 88.2L521.0 88.2L521.0 71.9Q521.0 70.3 521.8 69.0Q522.6 67.7 523.9 66.9Q525.2 66.1 526.8 66.1L526.8 66.1L545.4 66.1L545.4 57.0L549.3 57.0L549.3 94.0L526.8 94.0ZM526.8 90.0L526.8 90.0L543.5 90.0Q544.3 90.0 544.8 89.5Q545.4 88.9 545.4 88.2L545.4 88.2L545.4 71.9Q545.4 71.2 544.8 70.6Q544.3 70.1 543.5 70.1L543.5 70.1L526.8 70.1Q526.1 70.1 525.5 70.6Q525.0 71.2 525.0 71.9L525.0 71.9L525.0 88.2Q525.0 88.9 525.5 89.5Q526.1 90.0 526.8 90.0Z" style="animation: glitch-red 7s infinite;"/>
  <path fill="#00e5ff" d="M205.0 94.0L199.8 94.0L188.6 80.5L193.7 80.5L205.0 93.9L205.0 94.0ZM174.6 94.0L170.7 94.0L170.7 59.4L199.5 59.4Q201.0 59.4 202.4 60.2Q203.7 61.0 204.5 62.3Q205.2 63.6 205.2 65.2L205.2 65.2L205.2 75.3Q205.2 76.9 204.5 78.2Q203.7 79.5 202.4 80.3Q201.0 81.1 199.5 81.1L199.5 81.1L174.6 81.1L174.6 94.0ZM176.4 77.2L176.4 77.2L199.5 77.2Q200.2 77.2 200.8 76.6Q201.3 76.1 201.3 75.3L201.3 75.3L201.3 65.2Q201.3 64.4 200.8 63.9Q200.2 63.3 199.5 63.3L199.5 63.3L176.4 63.3Q175.7 63.3 175.1 63.9Q174.6 64.4 174.6 65.2L174.6 65.2L174.6 75.3Q174.6 76.1 175.1 76.6Q175.7 77.2 176.4 77.2ZM238.4 94.0L215.9 94.0Q214.3 94.0 213.0 93.2Q211.7 92.4 210.9 91.1Q210.1 89.7 210.1 88.2L210.1 88.2L210.1 78.1L234.5 78.1L234.5 71.9Q234.5 71.2 233.9 70.6Q233.4 70.1 232.6 70.1L232.6 70.1L210.1 70.1L210.1 66.1L232.6 66.1Q234.2 66.1 235.5 66.9Q236.9 67.7 237.6 69.0Q238.4 70.3 238.4 71.9L238.4 71.9L238.4 94.0ZM215.9 90.0L215.9 90.0L234.5 90.0L234.5 82.0L214.0 82.0L214.0 88.2Q214.0 88.9 214.6 89.5Q215.1 90.0 215.9 90.0ZM271.8 94.0L249.2 94.0Q247.6 94.0 246.3 93.2Q245.0 92.4 244.2 91.1Q243.4 89.7 243.4 88.2L243.4 88.2L243.4 78.1L267.8 78.1L267.8 71.9Q267.8 71.2 267.2 70.6Q266.7 70.1 265.9 70.1L265.9 70.1L243.4 70.1L243.4 66.1L265.9 66.1Q267.5 66.1 268.8 66.9Q270.2 67.7 271.0 69.0Q271.8 70.3 271.8 71.9L271.8 71.9L271.8 94.0ZM249.2 90.0L249.2 90.0L267.8 90.0L267.8 82.0L247.3 82.0L247.3 88.2Q247.3 88.9 247.9 89.5Q248.4 90.0 249.2 90.0ZM305.1 94.0L282.5 94.0Q280.9 94.0 279.6 93.2Q278.3 92.4 277.5 91.1Q276.7 89.7 276.7 88.2L276.7 88.2L276.7 78.1L301.1 78.1L301.1 71.9Q301.1 71.2 300.5 70.6Q300.0 70.1 299.2 70.1L299.2 70.1L276.7 70.1L276.7 66.1L299.2 66.1Q300.8 66.1 302.2 66.9Q303.5 67.7 304.3 69.0Q305.1 70.3 305.1 71.9L305.1 71.9L305.1 94.0ZM282.5 90.0L282.5 90.0L301.1 90.0L301.1 82.0L280.6 82.0L280.6 88.2Q280.6 88.9 281.2 89.5Q281.7 90.0 282.5 90.0ZM338.4 94.0L315.8 94.0Q314.2 94.0 312.9 93.2Q311.6 92.4 310.8 91.1Q310.0 89.7 310.0 88.2L310.0 88.2L310.0 78.1L334.4 78.1L334.4 71.9Q334.4 71.2 333.8 70.6Q333.3 70.1 332.5 70.1L332.5 70.1L310.0 70.1L310.0 66.1L332.5 66.1Q334.2 66.1 335.5 66.9Q336.8 67.7 337.6 69.0Q338.4 70.3 338.4 71.9L338.4 71.9L338.4 94.0ZM315.8 90.0L315.8 90.0L334.4 90.0L334.4 82.0L313.9 82.0L313.9 88.2Q313.9 88.9 314.5 89.5Q315.0 90.0 315.8 90.0ZM371.7 94.0L349.1 94.0Q347.5 94.0 346.2 93.2Q344.9 92.4 344.1 91.1Q343.3 89.7 343.3 88.2L343.3 88.2L343.3 78.1L367.7 78.1L367.7 71.9Q367.7 71.2 367.2 70.6Q366.6 70.1 365.8 70.1L365.8 70.1L343.3 70.1L343.3 66.1L365.8 66.1Q367.5 66.1 368.8 66.9Q370.1 67.7 370.9 69.0Q371.7 70.3 371.7 71.9L371.7 71.9L371.7 94.0ZM349.1 90.0L349.1 90.0L367.7 90.0L367.7 82.0L347.3 82.0L347.3 88.2Q347.3 88.9 347.8 89.5Q348.4 90.0 349.1 90.0ZM398.7 105.0L381.3 105.0L381.3 105.0L381.3 101.0L398.7 101.0Q399.4 101.0 400.0 100.5Q400.5 99.9 400.5 99.1L400.5 99.1L400.5 94.0L382.0 94.0Q380.4 94.0 379.1 93.2Q377.7 92.4 376.9 91.1Q376.2 89.7 376.2 88.2L376.2 88.2L376.2 66.2L380.1 66.2L380.1 88.2Q380.1 88.9 380.6 89.5Q381.2 90.0 382.0 90.0L382.0 90.0L398.7 90.0Q399.4 90.0 400.0 89.5Q400.5 88.9 400.5 88.2L400.5 88.2L400.5 66.2L404.5 66.2L404.5 99.1Q404.5 100.8 403.7 102.1Q402.9 103.4 401.6 104.2Q400.3 105.0 398.7 105.0L398.7 105.0ZM413.6 94.0L409.6 94.0L409.6 94.0L409.6 66.1L446.4 66.1Q448.0 66.1 449.3 66.9Q450.6 67.7 451.4 69.0Q452.2 70.3 452.2 71.9L452.2 71.9L452.2 94.0L448.3 94.0L448.3 71.9Q448.3 71.2 447.7 70.6Q447.1 70.1 446.4 70.1L446.4 70.1L434.8 70.1Q434.0 70.1 433.5 70.6Q432.9 71.2 432.9 71.9L432.9 71.9L432.9 94.0L429.0 94.0L429.0 71.9Q429.0 71.2 428.4 70.6Q427.8 70.1 427.1 70.1L427.1 70.1L415.5 70.1Q414.7 70.1 414.1 70.6Q413.6 71.2 413.6 71.9L413.6 71.9L413.6 94.0ZM462.2 94.0L462.2 94.0Q460.6 94.0 459.3 93.2Q458.0 92.4 457.2 91.1Q456.4 89.7 456.4 88.2L456.4 88.2L456.4 71.9Q456.4 70.3 457.2 69.0Q458.0 67.7 459.3 66.9Q460.6 66.1 462.2 66.1L462.2 66.1L478.9 66.1Q480.6 66.1 481.9 66.9Q483.2 67.7 484.0 69.0Q484.8 70.3 484.8 71.9L484.8 71.9L484.8 88.2Q484.8 89.7 484.0 91.1Q483.2 92.4 481.9 93.2Q480.6 94.0 478.9 94.0L478.9 94.0L462.2 94.0ZM462.2 90.0L462.2 90.0L478.9 90.0Q479.7 90.0 480.2 89.5Q480.8 88.9 480.8 88.2L480.8 88.2L480.8 71.9Q480.8 71.2 480.2 70.6Q479.7 70.1 478.9 70.1L478.9 70.1L462.2 70.1Q461.4 70.1 460.9 70.6Q460.3 71.2 460.3 71.9L460.3 71.9L460.3 88.2Q460.3 88.9 460.9 89.5Q461.4 90.0 462.2 90.0ZM493.0 94.0L489.0 94.0L489.0 94.0L489.0 66.1L511.6 66.1Q513.2 66.1 514.5 66.9Q515.8 67.7 516.6 69.0Q517.4 70.3 517.4 71.9L517.4 71.9L517.4 94.0L513.5 94.0L513.5 71.9Q513.5 71.2 512.9 70.6Q512.4 70.1 511.6 70.1L511.6 70.1L494.9 70.1Q494.1 70.1 493.6 70.6Q493.0 71.2 493.0 71.9L493.0 71.9L493.0 94.0ZM526.8 94.0L526.8 94.0Q525.2 94.0 523.9 93.2Q522.6 92.4 521.8 91.1Q521.0 89.7 521.0 88.2L521.0 88.2L521.0 71.9Q521.0 70.3 521.8 69.0Q522.6 67.7 523.9 66.9Q525.2 66.1 526.8 66.1L526.8 66.1L545.4 66.1L545.4 57.0L549.3 57.0L549.3 94.0L526.8 94.0ZM526.8 90.0L526.8 90.0L543.5 90.0Q544.3 90.0 544.8 89.5Q545.4 88.9 545.4 88.2L545.4 88.2L545.4 71.9Q545.4 71.2 544.8 70.6Q544.3 70.1 543.5 70.1L543.5 70.1L526.8 70.1Q526.1 70.1 525.5 70.6Q525.0 71.2 525.0 71.9L525.0 71.9L525.0 88.2Q525.0 88.9 525.5 89.5Q526.1 90.0 526.8 90.0Z" style="animation: glitch-cyan 7s infinite;"/>
</svg>