<svg xmlns="http://www.w3.org/2000/svg" width="720" height="100" viewBox="0 0 720 100">
  <defs><style>
  @keyframes glitch-red {
    0%,88%,100% { opacity:0; transform:translateX(0); }
    89%          { opacity:1; transform:translateX(-7px); }
    91%          { opacity:1; transform:translateX(6px); }
    93%          { opacity:1; transform:translateX(-5px); }
    95%          { opacity:1; transform:translateX(7px); }
    97%          { opacity:0; }
  }
  @keyframes glitch-cyan {
    0%,84%,100% { opacity:0; transform:translateX(0); }
    85%          { opacity:1; transform:translateX(7px); }
    87%          { opacity:1; transform:translateX(-7px); }
    89%          { opacity:1; transform:translateX(5px); }
    91%          { opacity:0; }
  }
  @keyframes glitch-base {
    0%,88%,100% { transform:translateX(0); }
    89%          { transform:translateX(2px); }
    91%          { transform:translateX(-2px); }
    93%          { transform:translateX(1px); }
    95%          { transform:translateX(0); }
  }
  .base { fill:#a78bfa; animation:glitch-base 7s infinite; }
  .red  { fill:#ff3366; opacity:0; animation:glitch-red  7s infinite; }
  .cyan { fill:#00e5ff; opacity:0; animation:glitch-cyan 7s infinite; }</style></defs>
  <g class="base"><path d="M630.228759765625 0 413.148193359375 258.634521484375H586.00146484375L773.7568359375 36.8388671875V0ZM56 0V719H636.012939453125Q674.1820068359375 719 705.9895629882812 700.0877685546875Q737.797119140625 681.175537109375 756.8985595703125 649.35107421875Q776 617.526611328125 776 579.7021484375V385.932373046875Q776 348.10791015625 756.8985595703125 316.283447265625Q737.797119140625 284.458984375 705.9895629882812 265.5467529296875Q674.1820068359375 246.634521484375 636.012939453125 246.634521484375L188.00146484375 245.9453125V0ZM200.122314453125 379.635986328125H630.499267578125Q635.471923828125 379.635986328125 639.0460205078125 383.0546875Q642.6201171875 386.473388671875 642.6201171875 391.446044921875V574.877685546875Q642.6201171875 579.850341796875 639.0460205078125 583.4244384765625Q635.471923828125 586.99853515625 630.499267578125 586.99853515625H200.122314453125Q195.149658203125 586.99853515625 191.5755615234375 583.4244384765625Q188.00146484375 579.850341796875 188.00146484375 574.877685546875V391.446044921875Q188.00146484375 386.473388671875 191.5755615234375 383.0546875Q195.149658203125 379.635986328125 200.122314453125 379.635986328125Z" transform="translate(119.6,66.0) scale(1,-1)"/><path d="M189.541015625 0Q151.88885498046875 0 120.51205444335938 18.9122314453125Q89.13525390625 37.824462890625 70.567626953125 68.98588562011719Q52 100.14730834960938 52 137.541015625V355.8115234375H509.687744140625V436.9453125Q509.687744140625 441.91796875 506.1136474609375 445.4920654296875Q502.53955078125 449.066162109375 497.56689453125 449.066162109375H52V580H503.08056640625Q541.4982830110143 580 572.5714361472208 561.1739196777344Q603.6445892834273 542.3478393554688 622.2884811651511 510.9710388183594Q640.932373046875 479.59423828125 640.932373046875 442.458984375V0ZM195.0546875 130.933837890625H509.687744140625V237.97265625H182.933837890625V143.0546875Q182.933837890625 138.08203125 186.5079345703125 134.5079345703125Q190.08203125 130.933837890625 195.0546875 130.933837890625Z" transform="translate(169.1,66.0) scale(1,-1)"/><path d="M189.541015625 0Q151.88885498046875 0 120.51205444335938 18.9122314453125Q89.13525390625 37.824462890625 70.567626953125 68.98588562011719Q52 100.14730834960938 52 137.541015625V355.8115234375H509.687744140625V436.9453125Q509.687744140625 441.91796875 506.1136474609375 445.4920654296875Q502.53955078125 449.066162109375 497.56689453125 449.066162109375H52V580H503.08056640625Q541.4982830110143 580 572.5714361472208 561.1739196777344Q603.6445892834273 542.3478393554688 622.2884811651511 510.9710388183594Q640.932373046875 479.59423828125 640.932373046875 442.458984375V0ZM195.0546875 130.933837890625H509.687744140625V237.97265625H182.933837890625V143.0546875Q182.933837890625 138.08203125 186.5079345703125 134.5079345703125Q190.08203125 130.933837890625 195.0546875 130.933837890625Z" transform="translate(210.7,66.0) scale(1,-1)"/><path d="M189.541015625 0Q151.88885498046875 0 120.51205444335938 18.9122314453125Q89.13525390625 37.824462890625 70.567626953125 68.98588562011719Q52 100.14730834960938 52 137.541015625V355.8115234375H509.687744140625V436.9453125Q509.687744140625 441.91796875 506.1136474609375 445.4920654296875Q502.53955078125 449.066162109375 497.56689453125 449.066162109375H52V580H503.08056640625Q541.4982830110143 580 572.5714361472208 561.1739196777344Q603.6445892834273 542.3478393554688 622.2884811651511 510.9710388183594Q640.932373046875 479.59423828125 640.932373046875 442.458984375V0ZM195.0546875 130.933837890625H509.687744140625V237.97265625H182.933837890625V143.0546875Q182.933837890625 138.08203125 186.5079345703125 134.5079345703125Q190.08203125 130.933837890625 195.0546875 130.933837890625Z" transform="translate(252.4,66.0) scale(1,-1)"/><path d="M189.541015625 0Q151.88885498046875 0 120.51205444335938 18.9122314453125Q89.13525390625 37.824462890625 70.567626953125 68.98588562011719Q52 100.14730834960938 52 137.541015625V355.8115234375H509.687744140625V436.9453125Q509.687744140625 441.91796875 506.1136474609375 445.4920654296875Q502.53955078125 449.066162109375 497.56689453125 449.066162109375H52V580H503.08056640625Q541.4982830110143 580 572.5714361472208 561.1739196777344Q603.6445892834273 542.3478393554688 622.2884811651511 510.9710388183594Q640.932373046875 479.59423828125 640.932373046875 442.458984375V0ZM195.0546875 130.933837890625H509.687744140625V237.97265625H182.933837890625V143.0546875Q182.933837890625 138.08203125 186.5079345703125 134.5079345703125Q190.08203125 130.933837890625 195.0546875 130.933837890625Z" transform="translate(294.0,66.0) scale(1,-1)"/><path d="M189.541015625 0Q151.88885498046875 0 120.51205444335938 18.9122314453125Q89.13525390625 37.824462890625 70.567626953125 68.98588562011719Q52 100.14730834960938 52 137.541015625V355.8115234375H509.687744140625V436.9453125Q509.687744140625 441.91796875 506.1136474609375 445.4920654296875Q502.53955078125 449.066162109375 497.56689453125 449.066162109375H52V580H503.08056640625Q541.4982830110143 580 572.5714361472208 561.1739196777344Q603.6445892834273 542.3478393554688 622.2884811651511 510.9710388183594Q640.932373046875 479.59423828125 640.932373046875 442.458984375V0ZM195.0546875 130.933837890625H509.687744140625V237.97265625H182.933837890625V143.0546875Q182.933837890625 138.08203125 186.5079345703125 134.5079345703125Q190.08203125 130.933837890625 195.0546875 130.933837890625Z" transform="translate(335.7,66.0) scale(1,-1)"/><path d="M138.661865234375 -214.83740234375V-82.903564453125H488.256103515625Q493.228759765625 -82.903564453125 496.8028564453125 -79.3294677734375Q500.376953125 -75.75537109375 500.376953125 -70.78271484375V0H180.230224609375Q142.5310724431818 0 111.1151123046875 18.826080322265625Q79.69915216619319 37.65216064453125 60.84957608309659 69.02896118164062Q42 100.40576171875 42 137.541015625V578H172.933837890625V143.0546875Q172.933837890625 138.08203125 176.5079345703125 134.5079345703125Q180.08203125 130.933837890625 185.0546875 130.933837890625H488.256103515625Q493.228759765625 130.933837890625 496.8028564453125 134.5079345703125Q500.376953125 138.08203125 500.376953125 143.0546875V578H631.310791015625V-76.985595703125Q631.310791015625 -115.40331230788934 613.0292716190733 -146.4764654440958Q594.7477522225215 -177.54961858030225 563.3263907596983 -196.19351046202613Q531.905029296875 -214.83740234375 493.769775390625 -214.83740234375Z" transform="translate(377.3,66.0) scale(1,-1)"/><path d="M54 0V580H773.1337890625Q811.6097755003511 580 842.7300586486131 561.0877685546875Q873.850341796875 542.175537109375 892.2625732421875 511.0141143798828Q910.6748046875 479.8526916503906 910.6748046875 442.458984375V0H780.740966796875V436.9453125Q780.740966796875 441.91796875 777.011474609375 445.4920654296875Q773.281982421875 449.066162109375 768.309326171875 449.066162109375H561.08056640625Q556.10791015625 449.066162109375 552.5338134765625 445.4920654296875Q548.959716796875 441.91796875 548.959716796875 436.9453125V0H417.02587890625V436.9453125Q417.02587890625 441.91796875 413.4517822265625 445.4920654296875Q409.877685546875 449.066162109375 404.905029296875 449.066162109375H197.365478515625Q192.392822265625 449.066162109375 188.8187255859375 445.4920654296875Q185.24462890625 441.91796875 185.24462890625 436.9453125V0Z" transform="translate(418.4,66.0) scale(1,-1)"/><path d="M188.541015625 0Q151.14730834960938 0 119.98588562011719 18.9122314453125Q88.824462890625 37.824462890625 69.9122314453125 68.98588562011719Q51 100.14730834960938 51 137.541015625V442.458984375Q51 479.8526916503906 69.9122314453125 511.0141143798828Q88.824462890625 542.175537109375 119.98588562011719 561.0877685546875Q151.14730834960938 580 188.541015625 580H502.08056640625Q540.4982830110143 580 571.5714361472208 561.1739196777344Q602.6445892834273 542.3478393554688 621.2884811651511 510.9710388183594Q639.932373046875 479.59423828125 639.932373046875 442.458984375V137.541015625Q639.932373046875 100.14730834960938 621.36474609375 68.98588562011719Q602.797119140625 37.824462890625 571.6768359923631 18.9122314453125Q540.5565528441011 0 502.08056640625 0H188.541015625ZM194.0546875 130.933837890625H496.56689453125Q501.53955078125 130.933837890625 505.1136474609375 134.5079345703125Q508.687744140625 138.08203125 508.687744140625 143.0546875V436.9453125Q508.687744140625 441.91796875 505.1136474609375 445.4920654296875Q501.53955078125 449.066162109375 496.56689453125 449.066162109375H194.0546875Q189.08203125 449.066162109375 185.5079345703125 445.4920654296875Q181.933837890625 441.91796875 181.933837890625 436.9453125V143.0546875Q181.933837890625 138.08203125 185.5079345703125 134.5079345703125Q189.08203125 130.933837890625 194.0546875 130.933837890625Z" transform="translate(477.1,66.0) scale(1,-1)"/><path d="M54 0V580H505.391357421875Q543.0435180664062 580 574.4203186035156 561.0877685546875Q605.797119140625 542.175537109375 624.36474609375 511.0141143798828Q642.932373046875 479.8526916503906 642.932373046875 442.458984375V0H511.99853515625V436.9453125Q511.99853515625 441.91796875 508.4244384765625 445.4920654296875Q504.850341796875 449.066162109375 499.877685546875 449.066162109375H197.365478515625Q192.392822265625 449.066162109375 188.663330078125 445.4920654296875Q184.933837890625 441.91796875 184.933837890625 436.9453125V0Z" transform="translate(518.6,66.0) scale(1,-1)"/><path d="M160.851806640625 0Q122.43409003586065 0 91.3609368996542 18.826080322265625Q60.28778376344775 37.65216064453125 41.643891881723874 69.02896118164062Q23 100.40576171875 23 137.541015625V442.458984375Q23 479.8526916503906 41.567626953125 511.0141143798828Q60.13525390625 542.175537109375 91.25553705451193 561.0877685546875Q122.37582020277388 580 160.851806640625 580H481.687744140625V770H612.62158203125V0H160.851806640625ZM167.0546875 130.933837890625H469.56689453125Q474.53955078125 130.933837890625 478.1136474609375 134.5079345703125Q481.687744140625 138.08203125 481.687744140625 143.0546875V436.9453125Q481.687744140625 441.91796875 478.1136474609375 445.4920654296875Q474.53955078125 449.066162109375 469.56689453125 449.066162109375H167.0546875Q162.08203125 449.066162109375 158.5079345703125 445.4920654296875Q154.933837890625 441.91796875 154.933837890625 436.9453125V143.0546875Q154.933837890625 138.08203125 158.5079345703125 134.5079345703125Q162.08203125 130.933837890625 167.0546875 130.933837890625Z" transform="translate(560.4,66.0) scale(1,-1)"/></g>
  <g class="red"><path d="M630.228759765625 0 413.148193359375 258.634521484375H586.00146484375L773.7568359375 36.8388671875V0ZM56 0V719H636.012939453125Q674.1820068359375 719 705.9895629882812 700.0877685546875Q737.797119140625 681.175537109375 756.8985595703125 649.35107421875Q776 617.526611328125 776 579.7021484375V385.932373046875Q776 348.10791015625 756.8985595703125 316.283447265625Q737.797119140625 284.458984375 705.9895629882812 265.5467529296875Q674.1820068359375 246.634521484375 636.012939453125 246.634521484375L188.00146484375 245.9453125V0ZM200.122314453125 379.635986328125H630.499267578125Q635.471923828125 379.635986328125 639.0460205078125 383.0546875Q642.6201171875 386.473388671875 642.6201171875 391.446044921875V574.877685546875Q642.6201171875 579.850341796875 639.0460205078125 583.4244384765625Q635.471923828125 586.99853515625 630.499267578125 586.99853515625H200.122314453125Q195.149658203125 586.99853515625 191.5755615234375 583.4244384765625Q188.00146484375 579.850341796875 188.00146484375 574.877685546875V391.446044921875Q188.00146484375 386.473388671875 191.5755615234375 383.0546875Q195.149658203125 379.635986328125 200.122314453125 379.635986328125Z" transform="translate(119.6,66.0) scale(1,-1)"/><path d="M189.541015625 0Q151.88885498046875 0 120.51205444335938 18.9122314453125Q89.13525390625 37.824462890625 70.567626953125 68.98588562011719Q52 100.14730834960938 52 137.541015625V355.8115234375H509.687744140625V436.9453125Q509.687744140625 441.91796875 506.1136474609375 445.4920654296875Q502.53955078125 449.066162109375 497.56689453125 449.066162109375H52V580H503.08056640625Q541.4982830110143 580 572.5714361472208 561.1739196777344Q603.6445892834273 542.3478393554688 622.2884811651511 510.9710388183594Q640.932373046875 479.59423828125 640.932373046875 442.458984375V0ZM195.0546875 130.933837890625H509.687744140625V237.97265625H182.933837890625V143.0546875Q182.933837890625 138.08203125 186.5079345703125 134.5079345703125Q190.08203125 130.933837890625 195.0546875 130.933837890625Z" transform="translate(169.1,66.0) scale(1,-1)"/><path d="M189.541015625 0Q151.88885498046875 0 120.51205444335938 18.9122314453125Q89.13525390625 37.824462890625 70.567626953125 68.98588562011719Q52 100.14730834960938 52 137.541015625V355.8115234375H509.687744140625V436.9453125Q509.687744140625 441.91796875 506.1136474609375 445.4920654296875Q502.53955078125 449.066162109375 497.56689453125 449.066162109375H52V580H503.08056640625Q541.4982830110143 580 572.5714361472208 561.1739196777344Q603.6445892834273 542.3478393554688 622.2884811651511 510.9710388183594Q640.932373046875 479.59423828125 640.932373046875 442.458984375V0ZM195.0546875 130.933837890625H509.687744140625V237.97265625H182.933837890625V143.0546875Q182.933837890625 138.08203125 186.5079345703125 134.5079345703125Q190.08203125 130.933837890625 195.0546875 130.933837890625Z" transform="translate(210.7,66.0) scale(1,-1)"/><path d="M189.541015625 0Q151.88885498046875 0 120.51205444335938 18.9122314453125Q89.13525390625 37.824462890625 70.567626953125 68.98588562011719Q52 100.14730834960938 52 137.541015625V355.8115234375H509.687744140625V436.9453125Q509.687744140625 441.91796875 506.1136474609375 445.4920654296875Q502.53955078125 449.066162109375 497.56689453125 449.066162109375H52V580H503.08056640625Q541.4982830110143 580 572.5714361472208 561.1739196777344Q603.6445892834273 542.3478393554688 622.2884811651511 510.9710388183594Q640.932373046875 479.59423828125 640.932373046875 442.458984375V0ZM195.0546875 130.933837890625H509.687744140625V237.97265625H182.933837890625V143.0546875Q182.933837890625 138.08203125 186.5079345703125 134.5079345703125Q190.08203125 130.933837890625 195.0546875 130.933837890625Z" transform="translate(252.4,66.0) scale(1,-1)"/><path d="M189.541015625 0Q151.88885498046875 0 120.51205444335938 18.9122314453125Q89.13525390625 37.824462890625 70.567626953125 68.98588562011719Q52 100.14730834960938 52 137.541015625V355.8115234375H509.687744140625V436.9453125Q509.687744140625 441.91796875 506.1136474609375 445.4920654296875Q502.53955078125 449.066162109375 497.56689453125 449.066162109375H52V580H503.08056640625Q541.4982830110143 580 572.5714361472208 561.1739196777344Q603.6445892834273 542.3478393554688 622.2884811651511 510.9710388183594Q640.932373046875 479.59423828125 640.932373046875 442.458984375V0ZM195.0546875 130.933837890625H509.687744140625V237.97265625H182.933837890625V143.0546875Q182.933837890625 138.08203125 186.5079345703125 134.5079345703125Q190.08203125 130.933837890625 195.0546875 130.933837890625Z" transform="translate(294.0,66.0) scale(1,-1)"/><path d="M189.541015625 0Q151.88885498046875 0 120.51205444335938 18.9122314453125Q89.13525390625 37.824462890625 70.567626953125 68.98588562011719Q52 100.14730834960938 52 137.541015625V355.8115234375H509.687744140625V436.9453125Q509.687744140625 441.91796875 506.1136474609375 445.4920654296875Q502.53955078125 449.066162109375 497.56689453125 449.066162109375H52V580H503.08056640625Q541.4982830110143 580 572.5714361472208 561.1739196777344Q603.6445892834273 542.3478393554688 622.2884811651511 510.9710388183594Q640.932373046875 479.59423828125 640.932373046875 442.458984375V0ZM195.0546875 130.933837890625H509.687744140625V237.97265625H182.933837890625V143.0546875Q182.933837890625 138.08203125 186.5079345703125 134.5079345703125Q190.08203125 130.933837890625 195.0546875 130.933837890625Z" transform="translate(335.7,66.0) scale(1,-1)"/><path d="M138.661865234375 -214.83740234375V-82.903564453125H488.256103515625Q493.228759765625 -82.903564453125 496.8028564453125 -79.3294677734375Q500.376953125 -75.75537109375 500.376953125 -70.78271484375V0H180.230224609375Q142.5310724431818 0 111.1151123046875 18.826080322265625Q79.69915216619319 37.65216064453125 60.84957608309659 69.02896118164062Q42 100.40576171875 42 137.541015625V578H172.933837890625V143.0546875Q172.933837890625 138.08203125 176.5079345703125 134.5079345703125Q180.08203125 130.933837890625 185.0546875 130.933837890625H488.256103515625Q493.228759765625 130.933837890625 496.8028564453125 134.5079345703125Q500.376953125 138.08203125 500.376953125 143.0546875V578H631.310791015625V-76.985595703125Q631.310791015625 -115.40331230788934 613.0292716190733 -146.4764654440958Q594.7477522225215 -177.54961858030225 563.3263907596983 -196.19351046202613Q531.905029296875 -214.83740234375 493.769775390625 -214.83740234375Z" transform="translate(377.3,66.0) scale(1,-1)"/><path d="M54 0V580H773.1337890625Q811.6097755003511 580 842.7300586486131 561.0877685546875Q873.850341796875 542.175537109375 892.2625732421875 511.0141143798828Q910.6748046875 479.8526916503906 910.6748046875 442.458984375V0H780.740966796875V436.9453125Q780.740966796875 441.91796875 777.011474609375 445.4920654296875Q773.281982421875 449.066162109375 768.309326171875 449.066162109375H561.08056640625Q556.10791015625 449.066162109375 552.5338134765625 445.4920654296875Q548.959716796875 441.91796875 548.959716796875 436.9453125V0H417.02587890625V436.9453125Q417.02587890625 441.91796875 413.4517822265625 445.4920654296875Q409.877685546875 449.066162109375 404.905029296875 449.066162109375H197.365478515625Q192.392822265625 449.066162109375 188.8187255859375 445.4920654296875Q185.24462890625 441.91796875 185.24462890625 436.9453125V0Z" transform="translate(418.4,66.0) scale(1,-1)"/><path d="M188.541015625 0Q151.14730834960938 0 119.98588562011719 18.9122314453125Q88.824462890625 37.824462890625 69.9122314453125 68.98588562011719Q51 100.14730834960938 51 137.541015625V442.458984375Q51 479.8526916503906 69.9122314453125 511.0141143798828Q88.824462890625 542.175537109375 119.98588562011719 561.0877685546875Q151.14730834960938 580 188.541015625 580H502.08056640625Q540.4982830110143 580 571.5714361472208 561.1739196777344Q602.6445892834273 542.3478393554688 621.2884811651511 510.9710388183594Q639.932373046875 479.59423828125 639.932373046875 442.458984375V137.541015625Q639.932373046875 100.14730834960938 621.36474609375 68.98588562011719Q602.797119140625 37.824462890625 571.6768359923631 18.9122314453125Q540.5565528441011 0 502.08056640625 0H188.541015625ZM194.0546875 130.933837890625H496.56689453125Q501.53955078125 130.933837890625 505.1136474609375 134.5079345703125Q508.687744140625 138.08203125 508.687744140625 143.0546875V436.9453125Q508.687744140625 441.91796875 505.1136474609375 445.4920654296875Q501.53955078125 449.066162109375 496.56689453125 449.066162109375H194.0546875Q189.08203125 449.066162109375 185.5079345703125 445.4920654296875Q181.933837890625 441.91796875 181.933837890625 436.9453125V143.0546875Q181.933837890625 138.08203125 185.5079345703125 134.5079345703125Q189.08203125 130.933837890625 194.0546875 130.933837890625Z" transform="translate(477.1,66.0) scale(1,-1)"/><path d="M54 0V580H505.391357421875Q543.0435180664062 580 574.4203186035156 561.0877685546875Q605.797119140625 542.175537109375 624.36474609375 511.0141143798828Q642.932373046875 479.8526916503906 642.932373046875 442.458984375V0H511.99853515625V436.9453125Q511.99853515625 441.91796875 508.4244384765625 445.4920654296875Q504.850341796875 449.066162109375 499.877685546875 449.066162109375H197.365478515625Q192.392822265625 449.066162109375 188.663330078125 445.4920654296875Q184.933837890625 441.91796875 184.933837890625 436.9453125V0Z" transform="translate(518.6,66.0) scale(1,-1)"/><path d="M160.851806640625 0Q122.43409003586065 0 91.3609368996542 18.826080322265625Q60.28778376344775 37.65216064453125 41.643891881723874 69.02896118164062Q23 100.40576171875 23 137.541015625V442.458984375Q23 479.8526916503906 41.567626953125 511.0141143798828Q60.13525390625 542.175537109375 91.25553705451193 561.0877685546875Q122.37582020277388 580 160.851806640625 580H481.687744140625V770H612.62158203125V0H160.851806640625ZM167.0546875 130.933837890625H469.56689453125Q474.53955078125 130.933837890625 478.1136474609375 134.5079345703125Q481.687744140625 138.08203125 481.687744140625 143.0546875V436.9453125Q481.687744140625 441.91796875 478.1136474609375 445.4920654296875Q474.53955078125 449.066162109375 469.56689453125 449.066162109375H167.0546875Q162.08203125 449.066162109375 158.5079345703125 445.4920654296875Q154.933837890625 441.91796875 154.933837890625 436.9453125V143.0546875Q154.933837890625 138.08203125 158.5079345703125 134.5079345703125Q162.08203125 130.933837890625 167.0546875 130.933837890625Z" transform="translate(560.4,66.0) scale(1,-1)"/></g>
  <g class="cyan"><path d="M630.228759765625 0 413.148193359375 258.634521484375H586.00146484375L773.7568359375 36.8388671875V0ZM56 0V719H636.012939453125Q674.1820068359375 719 705.9895629882812 700.0877685546875Q737.797119140625 681.175537109375 756.8985595703125 649.35107421875Q776 617.526611328125 776 579.7021484375V385.932373046875Q776 348.10791015625 756.8985595703125 316.283447265625Q737.797119140625 284.458984375 705.9895629882812 265.5467529296875Q674.1820068359375 246.634521484375 636.012939453125 246.634521484375L188.00146484375 245.9453125V0ZM200.122314453125 379.635986328125H630.499267578125Q635.471923828125 379.635986328125 639.0460205078125 383.0546875Q642.6201171875 386.473388671875 642.6201171875 391.446044921875V574.877685546875Q642.6201171875 579.850341796875 639.0460205078125 583.4244384765625Q635.471923828125 586.99853515625 630.499267578125 586.99853515625H200.122314453125Q195.149658203125 586.99853515625 191.5755615234375 583.4244384765625Q188.00146484375 579.850341796875 188.00146484375 574.877685546875V391.446044921875Q188.00146484375 386.473388671875 191.5755615234375 383.0546875Q195.149658203125 379.635986328125 200.122314453125 379.635986328125Z" transform="translate(119.6,66.0) scale(1,-1)"/><path d="M189.541015625 0Q151.88885498046875 0 120.51205444335938 18.9122314453125Q89.13525390625 37.824462890625 70.567626953125 68.98588562011719Q52 100.14730834960938 52 137.541015625V355.8115234375H509.687744140625V436.9453125Q509.687744140625 441.91796875 506.1136474609375 445.4920654296875Q502.53955078125 449.066162109375 497.56689453125 449.066162109375H52V580H503.08056640625Q541.4982830110143 580 572.5714361472208 561.1739196777344Q603.6445892834273 542.3478393554688 622.2884811651511 510.9710388183594Q640.932373046875 479.59423828125 640.932373046875 442.458984375V0ZM195.0546875 130.933837890625H509.687744140625V237.97265625H182.933837890625V143.0546875Q182.933837890625 138.08203125 186.5079345703125 134.5079345703125Q190.08203125 130.933837890625 195.0546875 130.933837890625Z" transform="translate(169.1,66.0) scale(1,-1)"/><path d="M189.541015625 0Q151.88885498046875 0 120.51205444335938 18.9122314453125Q89.13525390625 37.824462890625 70.567626953125 68.98588562011719Q52 100.14730834960938 52 137.541015625V355.8115234375H509.687744140625V436.9453125Q509.687744140625 441.91796875 506.1136474609375 445.4920654296875Q502.53955078125 449.066162109375 497.56689453125 449.066162109375H52V580H503.08056640625Q541.4982830110143 580 572.5714361472208 561.1739196777344Q603.6445892834273 542.3478393554688 622.2884811651511 510.9710388183594Q640.932373046875 479.59423828125 640.932373046875 442.458984375V0ZM195.0546875 130.933837890625H509.687744140625V237.97265625H182.933837890625V143.0546875Q182.933837890625 138.08203125 186.5079345703125 134.5079345703125Q190.08203125 130.933837890625 195.0546875 130.933837890625Z" transform="translate(210.7,66.0) scale(1,-1)"/><path d="M189.541015625 0Q151.88885498046875 0 120.51205444335938 18.9122314453125Q89.13525390625 37.824462890625 70.567626953125 68.98588562011719Q52 100.14730834960938 52 137.541015625V355.8115234375H509.687744140625V436.9453125Q509.687744140625 441.91796875 506.1136474609375 445.4920654296875Q502.53955078125 449.066162109375 497.56689453125 449.066162109375H52V580H503.08056640625Q541.4982830110143 580 572.5714361472208 561.1739196777344Q603.6445892834273 542.3478393554688 622.2884811651511 510.9710388183594Q640.932373046875 479.59423828125 640.932373046875 442.458984375V0ZM195.0546875 130.933837890625H509.687744140625V237.97265625H182.933837890625V143.0546875Q182.933837890625 138.08203125 186.5079345703125 134.5079345703125Q190.08203125 130.933837890625 195.0546875 130.933837890625Z" transform="translate(252.4,66.0) scale(1,-1)"/><path d="M189.541015625 0Q151.88885498046875 0 120.51205444335938 18.9122314453125Q89.13525390625 37.824462890625 70.567626953125 68.98588562011719Q52 100.14730834960938 52 137.541015625V355.8115234375H509.687744140625V436.9453125Q509.687744140625 441.91796875 506.1136474609375 445.4920654296875Q502.53955078125 449.066162109375 497.56689453125 449.066162109375H52V580H503.08056640625Q541.4982830110143 580 572.5714361472208 561.1739196777344Q603.6445892834273 542.3478393554688 622.2884811651511 510.9710388183594Q640.932373046875 479.59423828125 640.932373046875 442.458984375V0ZM195.0546875 130.933837890625H509.687744140625V237.97265625H182.933837890625V143.0546875Q182.933837890625 138.08203125 186.5079345703125 134.5079345703125Q190.08203125 130.933837890625 195.0546875 130.933837890625Z" transform="translate(294.0,66.0) scale(1,-1)"/><path d="M189.541015625 0Q151.88885498046875 0 120.51205444335938 18.9122314453125Q89.13525390625 37.824462890625 70.567626953125 68.98588562011719Q52 100.14730834960938 52 137.541015625V355.8115234375H509.687744140625V436.9453125Q509.687744140625 441.91796875 506.1136474609375 445.4920654296875Q502.53955078125 449.066162109375 497.56689453125 449.066162109375H52V580H503.08056640625Q541.4982830110143 580 572.5714361472208 561.1739196777344Q603.6445892834273 542.3478393554688 622.2884811651511 510.9710388183594Q640.932373046875 479.59423828125 640.932373046875 442.458984375V0ZM195.0546875 130.933837890625H509.687744140625V237.97265625H182.933837890625V143.0546875Q182.933837890625 138.08203125 186.5079345703125 134.5079345703125Q190.08203125 130.933837890625 195.0546875 130.933837890625Z" transform="translate(335.7,66.0) scale(1,-1)"/><path d="M138.661865234375 -214.83740234375V-82.903564453125H488.256103515625Q493.228759765625 -82.903564453125 496.8028564453125 -79.3294677734375Q500.376953125 -75.75537109375 500.376953125 -70.78271484375V0H180.230224609375Q142.5310724431818 0 111.1151123046875 18.826080322265625Q79.69915216619319 37.65216064453125 60.84957608309659 69.02896118164062Q42 100.40576171875 42 137.541015625V578H172.933837890625V143.0546875Q172.933837890625 138.08203125 176.5079345703125 134.5079345703125Q180.08203125 130.933837890625 185.0546875 130.933837890625H488.256103515625Q493.228759765625 130.933837890625 496.8028564453125 134.5079345703125Q500.376953125 138.08203125 500.376953125 143.0546875V578H631.310791015625V-76.985595703125Q631.310791015625 -115.40331230788934 613.0292716190733 -146.4764654440958Q594.7477522225215 -177.54961858030225 563.3263907596983 -196.19351046202613Q531.905029296875 -214.83740234375 493.769775390625 -214.83740234375Z" transform="translate(377.3,66.0) scale(1,-1)"/><path d="M54 0V580H773.1337890625Q811.6097755003511 580 842.7300586486131 561.0877685546875Q873.850341796875 542.175537109375 892.2625732421875 511.0141143798828Q910.6748046875 479.8526916503906 910.6748046875 442.458984375V0H780.740966796875V436.9453125Q780.740966796875 441.91796875 777.011474609375 445.4920654296875Q773.281982421875 449.066162109375 768.309326171875 449.066162109375H561.08056640625Q556.10791015625 449.066162109375 552.5338134765625 445.4920654296875Q548.959716796875 441.91796875 548.959716796875 436.9453125V0H417.02587890625V436.9453125Q417.02587890625 441.91796875 413.4517822265625 445.4920654296875Q409.877685546875 449.066162109375 404.905029296875 449.066162109375H197.365478515625Q192.392822265625 449.066162109375 188.8187255859375 445.4920654296875Q185.24462890625 441.91796875 185.24462890625 436.9453125V0Z" transform="translate(418.4,66.0) scale(1,-1)"/><path d="M188.541015625 0Q151.14730834960938 0 119.98588562011719 18.9122314453125Q88.824462890625 37.824462890625 69.9122314453125 68.98588562011719Q51 100.14730834960938 51 137.541015625V442.458984375Q51 479.8526916503906 69.9122314453125 511.0141143798828Q88.824462890625 542.175537109375 119.98588562011719 561.0877685546875Q151.14730834960938 580 188.541015625 580H502.08056640625Q540.4982830110143 580 571.5714361472208 561.1739196777344Q602.6445892834273 542.3478393554688 621.2884811651511 510.9710388183594Q639.932373046875 479.59423828125 639.932373046875 442.458984375V137.541015625Q639.932373046875 100.14730834960938 621.36474609375 68.98588562011719Q602.797119140625 37.824462890625 571.6768359923631 18.9122314453125Q540.5565528441011 0 502.08056640625 0H188.541015625ZM194.0546875 130.933837890625H496.56689453125Q501.53955078125 130.933837890625 505.1136474609375 134.5079345703125Q508.687744140625 138.08203125 508.687744140625 143.0546875V436.9453125Q508.687744140625 441.91796875 505.1136474609375 445.4920654296875Q501.53955078125 449.066162109375 496.56689453125 449.066162109375H194.0546875Q189.08203125 449.066162109375 185.5079345703125 445.4920654296875Q181.933837890625 441.91796875 181.933837890625 436.9453125V143.0546875Q181.933837890625 138.08203125 185.5079345703125 134.5079345703125Q189.08203125 130.933837890625 194.0546875 130.933837890625Z" transform="translate(477.1,66.0) scale(1,-1)"/><path d="M54 0V580H505.391357421875Q543.0435180664062 580 574.4203186035156 561.0877685546875Q605.797119140625 542.175537109375 624.36474609375 511.0141143798828Q642.932373046875 479.8526916503906 642.932373046875 442.458984375V0H511.99853515625V436.9453125Q511.99853515625 441.91796875 508.4244384765625 445.4920654296875Q504.850341796875 449.066162109375 499.877685546875 449.066162109375H197.365478515625Q192.392822265625 449.066162109375 188.663330078125 445.4920654296875Q184.933837890625 441.91796875 184.933837890625 436.9453125V0Z" transform="translate(518.6,66.0) scale(1,-1)"/><path d="M160.851806640625 0Q122.43409003586065 0 91.3609368996542 18.826080322265625Q60.28778376344775 37.65216064453125 41.643891881723874 69.02896118164062Q23 100.40576171875 23 137.541015625V442.458984375Q23 479.8526916503906 41.567626953125 511.0141143798828Q60.13525390625 542.175537109375 91.25553705451193 561.0877685546875Q122.37582020277388 580 160.851806640625 580H481.687744140625V770H612.62158203125V0H160.851806640625ZM167.0546875 130.933837890625H469.56689453125Q474.53955078125 130.933837890625 478.1136474609375 134.5079345703125Q481.687744140625 138.08203125 481.687744140625 143.0546875V436.9453125Q481.687744140625 441.91796875 478.1136474609375 445.4920654296875Q474.53955078125 449.066162109375 469.56689453125 449.066162109375H167.0546875Q162.08203125 449.066162109375 158.5079345703125 445.4920654296875Q154.933837890625 441.91796875 154.933837890625 436.9453125V143.0546875Q154.933837890625 138.08203125 158.5079345703125 134.5079345703125Q162.08203125 130.933837890625 167.0546875 130.933837890625Z" transform="translate(560.4,66.0) scale(1,-1)"/></g>
</svg>